<?xml version="1.0" encoding="UTF-8" standalone="no"?>
<svg
   version="1.1"
   width="521"
   height="521"
   id="svg9"
   sodipodi:docname="Brain Slug.svg"
   inkscape:version="1.3.2 (091e20e, 2023-11-25, custom)"
   xmlns:inkscape="http://www.inkscape.org/namespaces/inkscape"
   xmlns:sodipodi="http://sodipodi.sourceforge.net/DTD/sodipodi-0.dtd"
   xmlns="http://www.w3.org/2000/svg"
   xmlns:svg="http://www.w3.org/2000/svg">
  <defs
     id="defs9" />
  <sodipodi:namedview
     id="namedview9"
     pagecolor="#ffffff"
     bordercolor="#000000"
     borderopacity="0.25"
     inkscape:showpageshadow="2"
     inkscape:pageopacity="0.0"
     inkscape:pagecheckerboard="0"
     inkscape:deskcolor="#d1d1d1"
     inkscape:zoom="1.5604607"
     inkscape:cx="178.47294"
     inkscape:cy="260.5"
     inkscape:window-width="1920"
     inkscape:window-height="1009"
     inkscape:window-x="-8"
     inkscape:window-y="-8"
     inkscape:window-maximized="1"
     inkscape:current-layer="svg9" />
  <path
     d="M 0,0 C 5.817111,6.1517235 8.531302,11.959859 8.3046875,20.445312 7.4553971,27.566286 3.5200752,32.181886 -1.9296875,36.585937 -7.8228102,40.611051 -13.312804,40.122115 -20,39 c -2.056948,20.347108 2.942343,34.641069 13.6894531,51.89502 1.9203495,3.084436 3.8214334,6.18057 5.72021487,9.27832 0.95414208,1.55569 1.91134623,3.1095 2.87207033,4.66113 C 9,115.74827 9,115.74827 9,120 c 0.6525879,-0.19634 1.305176,-0.39268 1.977539,-0.59497 C 70.397454,101.69873 70.397454,101.69873 91,112 c 0.127617,-0.69352 0.255234,-1.38703 0.386719,-2.10156 0.665181,-3.14372 1.538798,-6.1849 2.425781,-9.27344 1.587008,-5.667681 2.677267,-11.323084 3.591309,-17.135986 2.905951,-18.433984 8.327481,-34.402913 23.217281,-46.856202 2.48298,-1.704244 5.06543,-3.10169 7.72803,-4.503662 5.95253,-3.144458 9.78008,-5.410568 11.95166,-12.086181 1.33035,-3.887007 3.97563,-6.075342 7.48047,-8.042969 5.98435,-2.6597118 11.20724,-2.2907231 17.35547,-0.3125 5.56672,2.375136 8.8062,6.160957 11.86328,11.3125 1.90948,5.728448 1.91186,11.775625 -0.625,17.3125 -2.68052,4.712376 -6.16358,7.950359 -11.375,9.6875 -5.17292,0.354197 -9.71516,0.518443 -14.5625,-1.4375 -4.19383,-0.686262 -5.03117,0.02576 -8.5,2.3125 C 132.33117,58.33849 127.32777,68.161892 125,80 c -0.28567,2.912627 -0.34633,5.809084 -0.37891,8.734375 -0.017,0.800447 -0.034,1.600895 -0.0515,2.425598 -0.0526,2.529931 -0.0932,5.05985 -0.1321,7.590027 -0.0441,2.54438 -0.0908,5.08864 -0.14281,7.63287 -0.0317,1.57588 -0.0587,3.15186 -0.0802,4.72791 -0.0646,3.42262 -0.14781,6.61565 -1.21446,9.88922 0.66773,0.0825 1.33547,0.165 2.02344,0.25 3.92214,0.98826 7.10128,2.75834 10.60156,4.75 0.70423,0.39792 1.40846,0.79583 2.13403,1.20581 6.32302,3.6682 11.74206,7.97689 17.24097,12.79419 0.83145,0.6368 1.66289,1.27359 2.51953,1.92969 6.52194,5.44351 11.81239,12.9929 16.48047,20.07031 0,0.66 0,1.32 0,2 0.66,0 1.32,0 2,0 22.48577,28.67857 28.76363,72.09241 34.24609,106.82031 4.63386,31.2334 4.63386,31.2334 21.21485,57.4375 C 233,330 233,330 233,332 c 0.53367,0.21527 1.06734,0.43055 1.61719,0.65234 3.25939,1.84343 5.81093,4.34779 8.50781,6.91016 3.63903,3.62384 3.63903,3.62384 7.875,6.4375 0,0.66 0,1.32 0,2 0.66,0 1.32,0 2,0 0,0.66 0,1.32 0,2 0.66,0 1.32,0 2,0 13.48818,14.20242 23.51574,32.05157 24.3125,51.875 -0.39638,13.96139 -5.79678,27.86295 -15.3125,38.125 -9.93686,7.34668 -20.60834,7.93162 -32.5,8.4375 -12.26972,0.20968 -12.26972,0.20968 -23.26563,4.88281 -5.26237,5.77652 -5.66914,13.36572 -6.54687,20.74219 C 200.2867,484.75137 198.06855,495.46899 191,504 c -0.66,0 -1.32,0 -2,0 -0.24621,0.59555 -0.49242,1.19109 -0.74609,1.80469 -2.59716,4.54704 -7.68415,7.19015 -12.46094,9.05859 C 166.08182,517.43542 155.85404,515.45905 147,511 c -3.58379,-2.41368 -6.79928,-5.1028 -10,-8 -0.60328,-0.52207 -1.20656,-1.04414 -1.82813,-1.58203 -10.17686,-9.39221 -17.13278,-22.36898 -24.08618,-34.1582 C 104.54995,455.80172 104.54995,455.80172 95,447 c -4.616217,0 -7.916032,0.92469 -11.386719,4.05859 -2.702261,3.25188 -4.810133,6.9045 -6.898193,10.57129 C 75.858935,463.11584 74.934704,464.56216 74,466 c -0.66,0 -1.32,0 -2,0 -0.20625,0.55687 -0.4125,1.11375 -0.625,1.6875 -2.637727,4.43618 -5.856877,6.787 -10.625,8.4375 -4.624484,-0.15415 -7.378523,-1.68517 -11.320313,-3.99609 C 46.738211,470.87836 44.931593,470.78613 42,471 38.702741,477.47676 36.946851,483.80843 35.483398,490.88257 33.854554,498.48704 30.763476,504.6878 25,510 17.72365,514.65462 10.247704,516.17212 1.7304687,514.57422 -4.4819985,512.80078 -9.2864015,509.36639 -14,505 c -0.33,-0.66 -0.66,-1.32 -1,-2 -3.584723,0.60704 -6.605563,1.63013 -9.9375,3.0625 -7.794278,2.88599 -16.641759,3.47223 -24.5625,0.625 -1.155,-0.55688 -2.31,-1.11375 -3.5,-1.6875 -1.051875,-0.47438 -2.10375,-0.94875 -3.1875,-1.4375 -10.460304,-5.81128 -14.21229,-14.58151 -17.40625,-25.61328 -3.445828,-16.53335 5.79905,-31.17707 14.065918,-44.63379 13.440373,-21.89398 15.759299,-44.2965 10.043457,-69.44434 -4.274956,-17.151 -9.816362,-33.99548 -15.534668,-50.71045 -13.234284,-38.70099 -20.369138,-81.28721 -2.056885,-119.77026 3.125499,-6.21561 6.63045,-12.17143 10.474366,-17.97241 1.543879,-2.33088 2.981433,-4.70519 4.414062,-7.10547 0.721875,-1.09312 1.44375,-2.18625 2.1875,-3.3125 0.66,0 1.32,0 2,0 0.243633,-0.56074 0.487266,-1.12148 0.738281,-1.69922 3.994674,-7.2844 12.198505,-16.2811 19.429688,-20.59375 2.116106,-1.63133 2.116106,-1.63133 2.363281,-4.60547 C -25.617816,121.51792 -32.528358,107.101 -39.125,92.183594 -47.108786,74.003163 -52.202281,54.364539 -45.347656,34.90625 c 1.85445,-3.999162 4.318674,-7.458531 6.816406,-11.078125 2.249743,-4.155137 2.50592,-8.229951 3.023438,-12.871094 C -34.525489,5.2368862 -31.540063,2.266274 -27.1875,-1.3125 -18.067648,-6.140657 -8.5648103,-6.1935612 0,0 Z"
     transform="translate(78,5)"
     id="path2"
     style="display:inline" />
  <path
     d="m -23,150 c -0.510146,0.42507 -1.020293,0.85014 -1.545898,1.28809 C -46.052874,169.41286 -62.567687,196.04997 -67,224 c -0.158071,0.96027 -0.158071,0.96027 -0.319336,1.93994 -5.61936,35.50869 5.267807,70.11233 15.584961,103.75537 0.286172,0.93593 0.572344,1.87185 0.867188,2.83614 1.418403,4.63606 2.847273,9.26829 4.298828,13.89409 4.76889,15.35144 9.414951,31.23283 9.068359,47.44946 -0.01353,0.96414 -0.02707,1.92828 -0.04102,2.92163 -0.457607,15.85797 -6.703825,27.95975 -15.583984,40.76587 -3.725556,5.42547 -6.28244,11.40902 -8.875,17.4375 -0.366094,0.83016 -0.732188,1.66031 -1.109375,2.51562 -2.982166,8.31868 -3.600278,18.77089 0.171875,26.85938 4.448624,7.67606 10.218426,13.30263 18.9375,15.625 9.062968,1.44355 16.487749,-0.758 24,-6 1.346728,-2.98367 1.346728,-2.98367 -0.07422,-5.8125 -0.532383,-1.05188 -1.064765,-2.10375 -1.613281,-3.1875 -0.519492,-1.05188 -1.038984,-2.10375 -1.574219,-3.1875 C -24.965264,479.0562 -26.39097,477.81893 -29,476 c 0,-0.66 0,-1.32 0,-2 2.0625,-0.875 2.0625,-0.875 5,-1 5.764272,3.49599 8.654943,8.37083 11.4375,14.3125 C -8.3005162,495.86033 -3.723861,503.44073 5,508 c 5.052409,0.74544 7.914965,0.47067 12.1875,-2.375 7.82583,-6.6489 9.744102,-16.25936 12.026123,-25.84839 C 30.79129,473.23502 32.609503,467.41041 38,463 c 3.536433,-1.46335 7.231222,-1.31939 11,-1 1.761719,0.92969 1.761719,0.92969 3.5,2.0625 2.65788,1.63151 3.726778,1.9618 7,2.3125 5.468725,-2.14843 7.474274,-6.52401 10.5,-11.375 4.457983,-6.51025 9.904595,-14.11735 18,-16 4.861029,-0.52375 8.712981,-0.60566 13.1875,1.5 6.2013,5.51227 10.39558,11.24161 14.41187,18.5144 C 132.16466,489.46419 132.16466,489.46419 160,508 c 8.15137,1.16662 14.36132,-1.7502 20.88672,-6.3125 C 187.36501,496.51445 189.60123,490.00709 191,482 c 0.36849,-3.32858 0.65272,-6.66334 0.9375,-10 1.50252,-17.55216 1.50252,-17.55216 8.0625,-24 0,-0.66 0,-1.32 0,-2 1.99469,-0.68239 3.99657,-1.3437 6,-2 0.70093,-0.24903 1.40186,-0.49806 2.12402,-0.75464 6.6613,-2.22479 12.76425,-2.66812 19.75098,-2.74536 17.30187,-0.28736 17.30187,-0.28736 31.63672,-9.07813 C 269.28155,419.70792 271.20963,404.68041 270,390 c -0.83999,-3.98396 -2.186,-7.36632 -4,-11 -0.4009,-0.87527 -0.8018,-1.75055 -1.21484,-2.65234 -2.82092,-5.69907 -6.34945,-10.55454 -10.41016,-15.41016 -0.46737,-0.56058 -0.93473,-1.12116 -1.41626,-1.69873 C 250.54993,356.45513 248.47963,354.31507 245,353 c 0,-0.66 0,-1.32 0,-2 -1.51152,-1.35097 -3.08813,-2.62927 -4.6875,-3.875 C 214.19856,326.13938 206.74546,303.47332 201.6799,270.95251 194.11229,222.69429 182.89681,170.37828 141.875,138.875 93.456789,105.16612 21.106491,112.83853 -23,150 Z"
     transform="translate(78,5)"
     id="path10"
     style="display:inline;fill:#00ff00;fill-opacity:1" />
  <path
     style="display:inline"
     d="M 0,0 C 12.805723,11.250605 22.796907,26.46875 24.238281,43.80127 25.428766,63.797162 20.613238,83.366475 7.0625,98.6875 c -12.6111571,14.17207 -28.857486,22.05441 -47.800781,23.16406 -19.667978,0.53885 -37.706685,-4.91277 -53.199219,-17.16406 -1.577812,-1.17562 -1.577812,-1.17562 -3.1875,-2.375 -11.55701,-10.78654 -19.43353,-26.479802 -20.28125,-42.351563 -0.034,-1.96588 -0.0438,-3.932304 -0.0312,-5.898437 0.005,-1.041804 0.01,-2.083608 0.0151,-3.156982 0.40682,-18.24406 7.42513,-34.966363 20.285641,-48.0500492 C -69.641344,-22.362856 -29.19905,-22.660737 0,0 Z"
     transform="translate(212.9375,214.3125)"
     id="path4" />
  <path
     d="M 0,0 C 1.0260937,0.42410156 2.0521875,0.84820312 3.109375,1.2851562 10.595009,4.6954896 16.237725,9.1773871 22,15 c 0.625195,0.59168 1.250391,1.183359 1.894531,1.792969 10.581021,10.819869 14.940157,25.08387 15.160156,39.886718 C 38.536385,73.299912 32.220846,88.560597 20.875,100.75 6.9262964,113.78796 -9.5887417,120.5169 -28.648437,120.20703 -44.846477,119.63579 -59.964123,111.28687 -71.109375,99.832031 -79.379117,90.264132 -86.127009,77.753256 -87,65 c -0.07992,-0.928125 -0.159844,-1.85625 -0.242187,-2.8125 -0.853577,-18.879104 8.12062,-33.715005 20.144531,-47.34375 C -50.050259,-3.2843612 -23.030392,-9.676382 0,0 Z"
     fill="#ffffff"
     transform="translate(190,209)"
     id="path3"
     style="display:inline" />
  <path
     d="M 0,0 C 1.32,0.66 2.64,1.32 4,2 3.9278125,2.5594531 3.855625,3.1189063 3.78125,3.6953125 0.85565701,28.969185 7.4808985,47.756231 21.909912,68.114258 33.228648,84.114628 33.228648,84.114628 35,92 c -2.624676,1.479743 -5.249725,2.958819 -7.875,4.4375 -0.746367,0.420879 -1.492734,0.841758 -2.261719,1.275391 -0.715429,0.402832 -1.430859,0.805664 -2.167969,1.220703 -0.659838,0.371814 -1.319677,0.743628 -1.999511,1.126706 C 19.478853,100.73465 18.244414,101.37779 17,102 16.775703,100.55561 16.775703,100.55561 16.546875,99.082031 14.687821,88.683975 11.280827,79.321196 7.125,69.625 -1.9360504,48.411128 -10.892167,27.065679 -1.875,4.25 -1.2623545,2.8279469 -0.6421449,1.4089781 0,0 Z"
     fill="#00ff00"
     transform="translate(45,37)"
     id="path5"
     style="display:inline" />
  <path
     d="M 0,0 C 0.66,1.32 1.32,2.64 2,4 1.154375,4.53625 0.30875,5.0725 -0.5625,5.625 -12.44457,13.685841 -18.927133,23.86819 -22,38 c -1.629258,9.899816 -1.066288,20.15607 -0.963867,30.151123 0.0087,1.097395 0.0174,2.19479 0.02637,3.325439 0.0116,0.990806 0.0232,1.981612 0.03516,3.002442 C -23,77 -23,77 -24,80 c -4.29,-0.99 -8.58,-1.98 -13,-3 1.263421,-9.405467 3.127198,-18.699739 5,-28 0.148081,-0.751201 0.296162,-1.502402 0.44873,-2.276367 C -28.289335,30.576116 -21.783552,14.724487 -7.984375,4.8398437 -5.3598158,3.1473396 -2.7190797,1.5348824 0,0 Z"
     fill="#00ff00"
     transform="translate(216,42)"
     id="path6"
     style="display:inline" />
  <path
     d="m 0,0 c 2.7055239,2.1982382 4.4477833,3.8955667 6,7 0.5089044,6.106852 0.077546,9.129598 -4,14 -3.0810618,2.97836 -5.7206451,3.832182 -10,4 -4.177086,-1.224318 -6.470281,-2.429533 -9.4375,-5.625 C -19.430373,15.070394 -19.9676,11.662829 -19,7 -17.280134,3.680094 -14.904119,1.5776314 -11.75,-0.4375 -7.6728326,-1.2714661 -4.0108577,-1.1480353 0,0 Z"
     fill="#00ff00"
     transform="translate(70,11)"
     id="path7"
     style="display:inline" />
  <path
     d="M 0,0 C 3.4779474,1.7389737 5.4225645,3.0026113 7.375,6.375 8.5202196,11.184922 8.6480315,13.876745 6.125,18.25 2.5080478,22.930762 2.5080478,22.930762 -0.20703125,23.300781 -9.0408727,23.340514 -9.0408727,23.340514 -13,20 -15.827928,15.758108 -15.781223,11.981263 -15,7 -11.583685,0.64997203 -6.9334977,-0.92790304 0,0 Z"
     fill="#000000"
     transform="translate(178,254)"
     id="path8"
     style="display:inline" />
  <path
     d="M 0,0 C 2.9168388,1.8468769 5.4304336,3.8608673 7,7 7.1333531,11.76261 6.6443702,15.754482 3.5625,19.5 0.56656237,22.422866 -0.12019475,22.915403 -4.25,23.3125 -8.8215026,22.931541 -10.67751,22.167955 -14,19 -15.933387,14.682648 -16.351562,11.242186 -15.0625,6.6875 -11.2789,1.7573541 -6.3568551,-1.2172701 0,0 Z"
     fill="#00ff00"
     transform="translate(240,24)"
     id="path9"
     style="display:inline" />
</svg>
